<svg width="233" height="40" viewBox="0 0 233 40" fill="none" xmlns="http://www.w3.org/2000/svg">
<g clip-path="url(#clip0_70_113)">
<mask id="mask0_70_113" style="mask-type:luminance" maskUnits="userSpaceOnUse" x="0" y="0" width="233" height="40">
<path d="M0 0H232.308V40H0V0Z" fill="white"/>
</mask>
<g mask="url(#mask0_70_113)">
<path d="M73.7671 39.3512H67.9064V33.5963L67.7287 32.0102V20.7931C67.7287 18.6005 67.1998 17.112 66.1464 16.3274C65.1306 15.5429 63.4721 15.1527 61.166 15.1527C58.8598 15.1527 57.201 15.5641 56.1852 16.3868C55.2079 17.2095 54.7214 18.5793 54.7214 20.4962V21.3783H48.6279V20.7931C48.6279 18.6005 49.1567 16.6625 50.2106 14.9788C51.3064 13.2952 52.8087 11.9848 54.7214 11.0433C56.6764 10.0637 58.9402 9.57596 61.5214 9.57596C64.2548 9.57596 66.5229 10.0848 68.3171 11.1027C70.1152 12.1205 71.461 13.5285 72.3621 15.3308C73.2975 17.0908 73.7671 19.1858 73.7671 21.6158V39.3554V39.3512ZM57.0656 39.9365C54.4464 39.9365 52.2417 39.2708 50.4433 37.939C48.6871 36.5692 47.8071 34.6311 47.8071 32.1247C47.8071 30.4793 48.1794 29.1095 48.9198 28.0153C49.7029 26.9169 50.8156 26.0178 52.2629 25.3138C53.7098 24.6099 55.466 24.1179 57.5352 23.8465L68.3171 22.3198V26.7855L58.4702 28.2528C56.7906 28.486 55.6183 28.838 54.954 29.3088C54.2898 29.7795 53.9594 30.5598 53.9594 31.6582C53.9594 32.7566 54.3491 33.6175 55.1317 34.1264C55.9525 34.6353 57.2814 34.8898 59.1179 34.8898C60.5225 34.8898 61.8725 34.6735 63.1629 34.2452C64.4917 33.7744 65.5833 33.0111 66.4467 31.9551C67.3056 30.8567 67.7371 29.33 67.7371 27.3749L68.5583 34.8347L67.6187 34.7753C67.0729 35.6743 66.3114 36.5183 65.3337 37.3028C64.3944 38.0874 63.2433 38.7319 61.8767 39.2408C60.5098 39.7115 58.9064 39.945 57.0698 39.945L57.0656 39.9365Z" fill="white"/>
<path d="M106.963 39.3512H100.633V22.3749C100.633 19.7922 100.146 17.9305 99.169 16.7939C98.1913 15.6192 96.3547 15.034 93.6594 15.034C91.9417 15.034 90.5324 15.2884 89.4405 15.7973C88.349 16.2681 87.5282 17.0484 86.9778 18.1468C86.432 19.2028 86.157 20.6531 86.157 22.4937H85.0444L84.5151 15.6235H85.9201C86.3517 14.5675 86.9947 13.5878 87.854 12.6888C88.7128 11.7897 89.809 11.0433 91.1374 10.458C92.5044 9.86857 94.1247 9.57596 95.9994 9.57596C98.5382 9.57596 100.612 10.0637 102.211 11.0433C103.815 12.0229 105.004 13.3715 105.787 15.0976C106.57 16.8194 106.959 18.7999 106.959 21.0306V39.3554L106.963 39.3512ZM86.157 39.3512H79.8267V10.1612H85.6282V18.9144L86.157 19.207V39.3512Z" fill="white"/>
<path d="M125.975 40C122.929 40 120.352 39.3554 118.24 38.062C116.129 36.7685 114.508 34.9873 113.378 32.7184C112.286 30.4453 111.736 27.8033 111.736 24.788C111.736 21.7727 112.303 19.1307 113.437 16.8575C114.609 14.5463 116.268 12.7651 118.418 11.514C120.567 10.2206 123.166 9.57596 126.212 9.57596C128.789 9.57596 131.057 10.0637 133.012 11.0433C134.967 12.0229 136.469 13.3927 137.523 15.1527C138.619 16.9127 139.165 18.9695 139.165 21.319V21.8491H132.894V21.4971C132.894 19.3427 132.306 17.7778 131.138 16.7982C130.004 15.7803 128.226 15.2715 125.806 15.2715C122.992 15.2715 120.982 16.073 119.772 17.6803C118.6 19.2452 118.016 21.5946 118.016 24.7286C118.016 27.8626 118.604 30.2884 119.772 31.8957C120.982 33.4606 122.996 34.2451 125.806 34.2451C128.226 34.2451 130.008 33.7575 131.138 32.7778C132.31 31.76 132.894 30.1951 132.894 28.0789V27.7269H139.165V28.257C139.165 30.5301 138.619 32.5658 137.523 34.3639C136.431 36.1239 134.887 37.5149 132.894 38.5327C130.939 39.5123 128.637 40 125.979 40H125.975Z" fill="white"/>
<path d="M171.117 39.3512H164.786V22.3749C164.786 19.7922 164.278 17.9305 163.263 16.7939C162.285 15.6192 160.47 15.0339 157.813 15.0339C155.155 15.0339 153.378 15.6022 152.13 16.7388C150.92 17.8372 150.315 19.7752 150.315 22.553H149.202L149.142 15.0339H150.547C151.017 14.1348 151.66 13.274 152.481 12.4512C153.34 11.5903 154.415 10.9033 155.705 10.3944C157.034 9.84735 158.557 9.57165 160.275 9.57165C162.852 9.57165 164.926 10.0806 166.487 11.0984C168.091 12.078 169.259 13.4266 170.003 15.1527C170.748 16.8745 171.117 18.8125 171.117 20.9669V39.3512ZM150.31 39.3512H143.98V0H150.31V39.3512Z" fill="white"/>
<path d="M190.598 39.9408C187.628 39.9408 185.051 39.3131 182.863 38.062C180.675 36.7685 178.995 34.9873 177.824 32.7184C176.651 30.4072 176.067 27.7439 176.067 24.7286C176.067 21.7133 176.655 19.0713 177.824 16.7982C178.995 14.525 180.675 12.7651 182.863 11.514C185.051 10.2206 187.628 9.57596 190.598 9.57596C193.569 9.57596 196.108 10.2206 198.219 11.514C200.369 12.7651 202.01 14.5293 203.14 16.7982C204.312 19.0713 204.896 21.7133 204.896 24.7286C204.896 27.7439 204.308 30.4072 203.14 32.7184C202.006 34.9915 200.364 36.7727 198.219 38.062C196.108 39.3131 193.569 39.9408 190.598 39.9408ZM190.598 34.3003C193.645 34.3003 195.773 33.5369 196.988 32.0102C198.198 30.4453 198.803 28.0153 198.803 24.7286C198.803 21.4419 198.198 19.0331 196.988 17.5064C195.777 15.9797 193.649 15.2163 190.598 15.2163C187.547 15.2163 185.364 15.9797 184.154 17.5064C182.944 19.0331 182.339 21.4419 182.339 24.7286C182.339 28.0153 182.944 30.4453 184.154 32.0102C185.364 33.5369 187.514 34.3003 190.598 34.3003Z" fill="white"/>
<path d="M215.957 39.3512H209.627V9.98307H215.428V18.1468L215.957 18.4394V39.3469V39.3512ZM215.957 20.3223H214.493V14.6268H215.725C216.313 13.257 217.269 12.0823 218.598 11.1027C219.965 10.0848 221.725 9.57596 223.874 9.57596C226.024 9.57596 227.585 10.0255 228.796 10.9288C230.048 11.8278 230.945 13.0238 231.491 14.5123C232.037 16.0009 232.312 17.6633 232.312 19.5038V21.4419H225.982V20.2672C225.982 18.3079 225.647 16.9381 224.983 16.1578C224.319 15.3775 223.07 14.9831 221.234 14.9831C219.398 14.9831 217.95 15.3944 217.134 16.2172C216.351 17.0017 215.962 18.3715 215.962 20.3266L215.957 20.3223Z" fill="white"/>
<path fill-rule="evenodd" clip-rule="evenodd" d="M6.02562 25.916C4.43035 25.916 2.89856 25.2672 1.76875 24.1222C0.63895 22.9728 0 21.4207 0 19.8007V6.11535C0 4.49535 0.63895 2.93893 1.76875 1.79389C2.89856 0.648854 4.42612 0 6.02562 0H19.5071C21.1023 0 22.6341 0.648854 23.7639 1.79389C24.8937 2.93893 25.5285 4.49535 25.5327 6.11535V19.1518L21.9359 21.2595H34.1691C35.4047 21.2595 36.5895 21.76 37.4654 22.6463C38.3413 23.5327 38.8323 24.7371 38.8323 25.9924V34.6777C38.8323 35.933 38.3371 37.1374 37.4654 38.0237C36.5895 38.91 35.4047 39.4104 34.1691 39.4104H25.6088C24.3733 39.4104 23.1885 38.91 22.3125 38.0237C21.4366 37.1374 20.9458 35.933 20.9458 34.6777V28.028L24.5552 25.9118H6.02562M20.9458 21.2553V4.6565H4.58692V21.2595H20.9458V21.2553ZM34.1691 25.9118H25.5327V34.6777C25.5327 34.6777 25.5412 34.7158 25.5581 34.7328C25.5708 34.7455 25.5919 34.754 25.6088 34.7583H34.1691C34.1691 34.7583 34.2072 34.7498 34.2199 34.7328C34.2326 34.7201 34.241 34.6989 34.2453 34.6777V25.9881C34.2453 25.9881 34.2368 25.95 34.2199 25.9372C34.2072 25.9203 34.186 25.9118 34.1691 25.9118Z" fill="white"/>
</g>
</g>
<defs>
<clipPath id="clip0_70_113">
<rect width="232.308" height="40" fill="white"/>
</clipPath>
</defs>
</svg>
