<svg width="188" height="40" viewBox="0 0 188 40" fill="none" xmlns="http://www.w3.org/2000/svg">
<path fill-rule="evenodd" clip-rule="evenodd" d="M20 40C31.0457 40 40 31.0457 40 20C40 8.95429 31.0457 0 20 0C8.95429 0 0 8.95429 0 20C0 31.0457 8.95429 40 20 40ZM12.6984 16.5079C13.4283 16.5079 14.1429 16.2982 14.7571 15.9038C15.3713 15.5093 15.8592 14.9467 16.1628 14.2829C16.4664 13.6191 16.5729 12.8821 16.4696 12.1595C16.3664 11.4369 16.0577 10.7592 15.5803 10.207C17.1806 9.33937 18.9727 8.88623 20.793 8.88889C22.426 8.88889 23.9746 9.24571 25.3664 9.88571C24.9869 10.2331 24.6817 10.6537 24.4692 11.1222C24.2567 11.5907 24.1412 12.0973 24.1299 12.6117C24.1185 13.126 24.2114 13.6373 24.403 14.1147C24.5947 14.5921 24.881 15.0258 25.2447 15.3895C25.6085 15.7533 26.0422 16.0396 26.5196 16.2312C26.997 16.4228 27.5083 16.5158 28.0226 16.5044C28.5369 16.493 29.0436 16.3776 29.5121 16.1651C29.9806 15.9526 30.4012 15.6474 30.7486 15.2679C31.408 16.7023 31.7483 18.2626 31.746 19.8413C31.746 25.8902 26.8425 30.7937 20.7937 30.7937C14.7448 30.7937 9.84127 25.8902 9.84127 19.8413C9.84127 18.44 10.1041 17.0997 10.5841 15.8679C11.2097 16.2864 11.9457 16.5092 12.6984 16.5079ZM30.7486 15.2679C29.6525 12.8903 27.744 10.9824 25.3664 9.88635C26.0901 9.22385 27.0417 8.86617 28.0226 8.88785C29.0036 8.90952 29.9384 9.30888 30.6322 10.0027C31.326 10.6965 31.7254 11.6313 31.7471 12.6123C31.7687 13.5933 31.4111 14.5441 30.7486 15.2679ZM15.5803 10.207C13.2987 11.4448 11.5289 13.4502 10.5841 15.8679C10.1322 15.5662 9.75012 15.1713 9.46344 14.7097C9.17676 14.2481 8.99215 13.7305 8.92199 13.1917C8.85183 12.6528 8.89776 12.1052 9.05668 11.5856C9.21561 11.066 9.48385 10.5864 9.84341 10.179C10.203 9.77158 10.6455 9.44581 11.1414 9.22355C11.6372 9.00128 12.1749 8.88766 12.7182 8.89032C13.2616 8.89297 13.7981 9.01183 14.2918 9.23893C14.7854 9.46602 15.2248 9.79609 15.5803 10.207Z" fill="white"/>
<path d="M57.4704 14.6317C56.1283 13.5881 54.4772 13.0206 52.7771 13.0184C48.5866 13.0184 45.1714 16.4336 45.1714 20.6241C45.1714 24.8146 48.5866 28.2298 52.7771 28.2298C54.6209 28.2298 56.3181 27.5594 57.6381 26.4698L55.7523 24.3117C52.9866 26.407 48.44 24.7517 48.44 20.6241C48.44 16.6851 52.7352 14.967 55.5847 16.8108L57.4704 14.6317ZM66.4089 16.1822V13.2489H60.3536V16.1822H61.925V25.0032H60.3536V27.9365H66.4089V25.0032H64.8584V16.1822H66.4089ZM68.9219 13.2279V27.9155H71.8552V18.8641L73.3219 22.0279V22.0489L76.0666 27.9365H79.1885L76.1295 21.6508C77.9523 21.3365 79.1047 19.4298 79.1047 17.6489C79.1047 15.2184 77.1352 13.2279 74.7047 13.2279H68.9219ZM73.4476 16.1613H74.7047C75.5219 16.1613 76.1714 16.8317 76.1714 17.6489C76.1723 18.0045 76.0426 18.3481 75.8071 18.6146C75.5715 18.8811 75.2464 19.0518 74.8933 19.0946L73.4476 16.1613ZM93.0527 14.6317C91.7105 13.5881 90.0594 13.0206 88.3593 13.0184C84.1688 13.0184 80.7536 16.4336 80.7536 20.6241C80.7536 24.8146 84.1688 28.2298 88.3593 28.2298C90.2031 28.2298 91.9003 27.5594 93.2203 26.4698L91.3346 24.3117C88.5689 26.407 84.0222 24.7517 84.0222 20.6241C84.0222 16.6851 88.3174 14.967 91.1669 16.8108L93.0527 14.6317ZM98.8692 13.2489H95.9358V27.9155H104.338V25.0032H98.8692V13.2489ZM116.443 13.2489H106.658V27.9365H116.38V25.0032H109.591V21.8184H115.248V18.8851H109.591V16.1822H116.443V13.2489ZM119.117 13.2489V27.9365H122.051V22.0698H123.874C125.041 22.0698 126.16 21.6063 126.985 20.7811C127.81 19.9559 128.274 18.8368 128.274 17.6698C128.274 15.2394 126.304 13.2489 123.874 13.2489H119.117ZM122.051 19.1365V16.1822H123.874C124.67 16.1822 125.34 16.8527 125.34 17.6698C125.339 18.0585 125.184 18.4308 124.909 18.7056C124.635 18.9804 124.262 19.1353 123.874 19.1365H122.051ZM136.405 13.2489H135.546L128.464 27.1613V27.9365H142.984V27.1613L136.405 13.2489ZM132.843 25.0032L135.902 19.0108L138.71 25.0032H132.843ZM155.986 27.9365L147.731 19.367V27.9365H144.797V13.2489H145.719L153.828 21.4622V13.2489H156.761V27.9365H155.986ZM159.489 13.2489V27.9155H160.683V27.9365H163.637C164.622 27.9365 165.586 27.7479 166.487 27.3498C167.367 26.9936 168.142 26.4489 168.813 25.7784C169.494 25.1224 170.03 24.3299 170.384 23.4527C170.782 22.5517 170.971 21.5879 170.971 20.5822C170.971 19.5974 170.782 18.6336 170.384 17.7327C170.028 16.8527 169.504 16.0774 168.813 15.386C168.146 14.7178 167.356 14.1842 166.487 13.8146C165.584 13.4385 164.615 13.2462 163.637 13.2489H159.489ZM163.637 16.1822C164.392 16.1822 165.104 16.3708 165.712 16.706L162.422 23.8508V16.1822H163.637ZM163.428 25.0032L166.864 17.586C167.597 18.3613 168.037 19.4298 168.037 20.5822C168.037 23.0127 166.068 25.0032 163.637 25.0032H163.428ZM179.721 13.2489H178.862L171.78 27.1613V27.9365H186.3V27.1613L179.721 13.2489ZM176.159 25.0032L179.218 19.0108L182.026 25.0032H176.159Z" fill="white"/>
</svg>
