<svg width="168" height="40" viewBox="0 0 168 40" fill="none" xmlns="http://www.w3.org/2000/svg">
<path d="M0.0127161 19.4842H18.2524L14.3485 23.388H0.0127161V29.2073H8.52931L0 37.7366L1.82953 39.5646L10.3572 31.0353V39.5518H16.1764V25.216L20.0564 21.3376V39.5518H27.8149V11.7259H0.0127161V19.4842Z" fill="white"/>
<path d="M118.236 31.7309L123.263 29.6075C124.217 32.6275 126.392 35.1389 130.302 35.1389C133.207 35.1389 135.163 33.462 135.163 31.4513C135.163 25.3618 119.465 29.3276 119.465 18.6589C119.465 14.2448 123.319 10.9482 129.407 10.9482C134.714 10.9482 139.184 13.7425 140.413 17.8752L135.387 19.9989C134.66 17.2061 132.034 15.642 129.464 15.642C126.783 15.642 125.106 16.7022 125.106 18.5476C125.106 23.9662 140.917 19.832 140.917 31.3956C140.917 36.2564 136.671 39.9996 130.302 39.9996C123.43 39.9996 119.52 35.754 118.236 31.7309Z" fill="white"/>
<path d="M142.972 31.7309L147.999 29.6075C148.953 32.6275 151.127 35.1389 155.039 35.1389C157.943 35.1389 159.898 33.462 159.898 31.4513C159.898 25.3618 144.2 29.3276 144.2 18.6589C144.2 14.2448 148.055 10.9482 154.144 10.9482C159.452 10.9482 163.92 13.7425 165.15 17.8752L160.122 19.9989C159.396 17.2061 156.77 15.642 154.2 15.642C151.52 15.642 149.843 16.7022 149.843 18.5476C149.843 23.9662 165.652 19.832 165.652 31.3956C165.652 36.2564 161.407 39.9996 155.038 39.9996C148.168 39.9996 144.256 35.754 142.972 31.7309Z" fill="white"/>
<path d="M115.012 22.0113V39.5531H109.041V35.252C107.421 38.1004 103.954 39.9998 100.214 39.9998C94.627 39.9998 90.7725 36.4805 90.7725 31.6771C90.7725 26.1456 95.0737 23.1844 103.733 22.2991L109.041 21.7331V21.3405C109.041 17.877 106.639 15.755 102.951 15.755C99.5434 15.755 97.1415 17.7657 96.7523 21.118L91.2779 20.1118C92.1712 14.582 96.9763 10.9499 102.953 10.9499C110.096 10.9499 115.012 14.9714 115.012 22.0113ZM109.041 27.4284V26.2553L103.678 26.8705C99.0968 27.3727 96.7506 29.0496 96.7506 31.5071C96.7506 33.742 98.5945 35.306 101.443 35.306C106.18 35.306 108.979 32.0109 109.041 27.4284Z" fill="white"/>
<path d="M85.6384 16.6483C81.5056 16.6483 77.8736 20.3344 77.8736 29.0465V39.55H71.7842V11.3966H77.8736V16.7596C79.3822 13.4073 83.0698 10.9499 86.4776 10.9499C87.5395 10.9499 88.7682 11.1089 89.6058 11.4522L89.2705 17.3254C88.2644 16.8708 86.9227 16.6483 85.6384 16.6483Z" fill="white"/>
<path d="M45.6285 35.9769V39.5535H39.5391V0H45.6285V14.916C47.3038 12.5698 50.6003 10.9422 54.2309 10.9422C62.722 10.9422 67.5827 16.9823 67.5827 25.4671C67.5827 33.952 62.722 39.992 54.118 39.992C50.3763 40 46.9683 38.3231 45.6285 35.9769ZM61.4932 25.4751C61.4932 19.888 58.2523 16.2559 53.336 16.2559C48.4196 16.2559 45.1802 19.8864 45.1802 25.4751C45.1802 31.0049 48.4212 34.6942 53.336 34.6942C58.2507 34.6942 61.4932 31.0065 61.4932 25.4751Z" fill="white"/>
</svg>
