<svg width="154" height="40" viewBox="0 0 154 40" fill="none" xmlns="http://www.w3.org/2000/svg">
<g clip-path="url(#clip0_70_114)">
<path fill-rule="evenodd" clip-rule="evenodd" d="M42.8438 34.3689L46.6049 0.112778H52.8871L51.296 14.3691C52.2465 13.0876 53.2832 12.0845 54.406 11.3599C55.5287 10.6353 56.7171 10.2729 57.9707 10.2729C58.8526 10.2729 59.6585 10.4446 60.3888 10.7878C61.1187 11.1311 61.749 11.6688 62.2796 12.4011C62.8099 13.1334 63.2232 14.0678 63.5193 15.2043C63.8157 16.3408 63.9637 17.6948 63.9637 19.2661C63.9637 21.3408 63.6779 23.3126 63.106 25.1814C62.5343 27.0502 61.7662 28.6939 60.8018 30.1128C59.8376 31.5314 58.7251 32.6567 57.4646 33.4881C56.204 34.3194 54.8849 34.7353 53.5071 34.7353C52.4462 34.7353 51.5129 34.51 50.7071 34.06C49.901 33.61 49.2157 33.0189 48.6507 32.2867L48.5888 32.5156C48.2554 33.6225 47.3218 34.3689 46.2701 34.3689H42.8438ZM55.4082 15.6505C54.9537 15.6505 54.4818 15.8412 53.9926 16.2226C53.5037 16.604 53.0318 17.1265 52.5771 17.7901C52.1226 18.4537 51.699 19.2318 51.3062 20.1242C50.9135 21.0166 50.5865 21.9663 50.3246 22.9732L49.7046 28.5108C50.1043 28.8769 50.5521 29.1364 51.0479 29.2889C51.544 29.4414 52.0193 29.5178 52.4737 29.5178C53.2179 29.5178 53.9032 29.2431 54.5301 28.6939C55.1568 28.1447 55.6976 27.4239 56.1524 26.5315C56.6068 25.6391 56.9615 24.6208 57.2165 23.4766C57.4713 22.3324 57.5987 21.1654 57.5987 19.9754C57.5987 18.4651 57.399 17.3668 56.9996 16.6803C56.5999 15.9938 56.0696 15.6505 55.4082 15.6505ZM83.2238 34.3689H80.8176C79.0946 34.3689 77.6976 32.8186 77.6976 30.9061C77.6976 30.7478 77.7074 30.5897 77.7268 30.4331C76.8451 31.7756 75.8668 32.8283 74.7924 33.5911C73.7176 34.3539 72.5329 34.7353 71.2379 34.7353C70.4662 34.7353 69.7224 34.5636 69.006 34.2203C68.2896 33.8769 67.656 33.3583 67.1049 32.6642C66.5537 31.97 66.1129 31.0853 65.7824 30.0097C65.4515 28.9342 65.2862 27.6642 65.2862 26.1997C65.2862 24.0487 65.641 22.0083 66.3504 20.0784C67.0601 18.1486 68.0521 16.4591 69.3263 15.0098C70.6007 13.5605 72.1126 12.4087 73.8624 11.5544C75.6121 10.7001 77.5337 10.2729 79.6279 10.2729C80.6474 10.2729 81.6807 10.3492 82.7276 10.5018C83.7749 10.6543 84.8079 10.9289 85.8276 11.3256L83.2238 34.3689ZM73.8004 29.1289C74.2687 29.1289 74.7235 28.9342 75.1643 28.5453C75.6051 28.1561 76.0218 27.6261 76.4146 26.9548C76.8071 26.2836 77.1688 25.4979 77.4993 24.5979C77.8301 23.6978 78.1126 22.7367 78.3468 21.7146L79.0907 15.1471H78.7187C77.6715 15.1471 76.7176 15.4064 75.8565 15.9251C74.9954 16.4438 74.2551 17.1494 73.6351 18.0418C73.0151 18.9343 72.5363 19.9716 72.1988 21.1539C71.8612 22.3363 71.6926 23.5986 71.6926 24.9411C71.6926 25.7039 71.7476 26.3523 71.8579 26.8862C71.9679 27.4201 72.1162 27.8511 72.3021 28.1792C72.4882 28.5072 72.7085 28.7475 72.9635 28.9C73.2182 29.0525 73.4974 29.1289 73.8004 29.1289ZM87.274 34.3689L89.8779 10.6391H91.2774C93.5046 10.6391 95.3101 12.6431 95.3101 15.1151C95.3101 15.2557 95.304 15.3962 95.2921 15.5361C96.1187 13.919 97.0143 12.6757 97.9787 11.8061C98.9432 10.9366 99.9418 10.5018 100.975 10.5018C101.554 10.5018 102.125 10.6467 102.69 10.9366L101.533 17.5041C100.83 17.1684 100.162 17.0006 99.5285 17.0006C98.4676 17.0006 97.5276 17.5308 96.7079 18.591C95.8882 19.6513 95.2235 21.3561 94.7135 23.7054L93.5562 34.3689H87.274ZM104.84 29.2431V28.8542C104.84 28.7017 104.85 28.4842 104.87 28.2019C104.891 27.9197 104.926 27.546 104.974 27.0807C105.022 26.6154 105.088 26.0014 105.17 25.2386L106.265 15.5361H104.55C104.288 15.5361 104.068 15.4408 103.889 15.2501C103.71 15.0594 103.62 14.7733 103.62 14.3919C103.62 14.3767 103.634 14.2432 103.662 13.9915C103.689 13.7398 103.717 13.4728 103.744 13.1906C103.772 12.9083 103.799 12.6452 103.827 12.4011C103.855 12.157 103.868 12.0197 103.868 11.9892L104.02 10.6848L107.175 10.6391L107.738 6.46308C107.949 4.90442 109.155 3.75122 110.575 3.75122H113.85L113.064 10.6848H117.859L117.817 11.0637C117.534 13.6174 115.58 15.5361 113.262 15.5361H112.527L111.494 24.8496C111.425 25.4751 111.373 25.9671 111.339 26.3256C111.304 26.6841 111.277 26.9587 111.256 27.1494C111.242 27.279 111.228 27.4086 111.215 27.5384C111.208 27.607 111.205 27.649 111.205 27.6642C111.205 28.1067 111.297 28.4767 111.483 28.7742C111.669 29.0717 111.962 29.2203 112.362 29.2203C112.582 29.2203 112.765 29.1936 112.909 29.1403C113.006 29.1047 113.347 28.9558 113.932 28.6939L116.04 32.6756C115.186 33.3622 114.27 33.8769 113.292 34.2203C112.313 34.5636 111.328 34.7353 110.337 34.7353C109.51 34.7353 108.766 34.6092 108.105 34.3575C107.443 34.1058 106.875 33.7397 106.4 33.2592C105.925 32.7786 105.553 32.2028 105.284 31.5314C105.015 30.8603 104.867 30.0975 104.84 29.2431ZM136.788 16.4743C136.788 17.5574 136.595 18.5491 136.209 19.4491C135.824 20.3492 135.152 21.1463 134.195 21.8404C133.237 22.5346 131.949 23.1257 130.33 23.6139C128.711 24.1021 126.676 24.4834 124.223 24.7581C124.251 26.3751 124.572 27.5574 125.185 28.305C125.798 29.0525 126.703 29.4261 127.902 29.4261C128.467 29.4261 128.956 29.3728 129.369 29.2661C129.783 29.1592 130.144 29.0219 130.454 28.8542C132.312 27.8486 134.533 28.19 136.074 29.7186L136.333 29.9756C135.576 30.7992 134.835 31.5125 134.112 32.115C133.388 32.7175 132.645 33.2133 131.88 33.6025C131.115 33.9914 130.303 34.2775 129.442 34.4606C128.58 34.6436 127.64 34.7353 126.621 34.7353C125.353 34.7353 124.189 34.495 123.128 34.0144C122.067 33.5339 121.155 32.855 120.39 31.9778C119.625 31.1006 119.033 30.0442 118.613 28.8083C118.193 27.5727 117.983 26.1997 117.983 24.6894C117.983 23.4232 118.11 22.1875 118.365 20.9823C118.62 19.7771 118.985 18.6444 119.46 17.5841C119.935 16.5239 120.518 15.5476 121.207 14.6551C121.895 13.7626 122.67 12.9961 123.531 12.3553C124.392 11.7146 125.336 11.215 126.362 10.8565C127.389 10.498 128.481 10.3187 129.638 10.3187C130.781 10.3187 131.797 10.5018 132.686 10.8679C133.575 11.2341 134.322 11.7108 134.928 12.2981C135.534 12.8854 135.996 13.5453 136.313 14.2775C136.63 15.0098 136.788 15.7421 136.788 16.4743ZM129.266 15.1013C128.205 15.1013 127.275 15.5704 126.476 16.5086C125.677 17.4469 125.078 18.7321 124.678 20.3645C126.015 20.1356 127.096 19.8954 127.923 19.6436C128.749 19.3919 129.39 19.1173 129.845 18.8198C130.299 18.5224 130.606 18.202 130.764 17.8587C130.923 17.5155 131.002 17.1456 131.002 16.7489C131.002 16.3523 130.864 15.9785 130.588 15.6276C130.313 15.2768 129.872 15.1013 129.266 15.1013ZM137.863 34.3689L140.467 10.6391H141.468C143.905 10.6391 145.881 12.8316 145.881 15.5361C146.707 13.919 147.603 12.6757 148.567 11.8061C149.532 10.9366 150.53 10.5018 151.564 10.5018C152.142 10.5018 152.714 10.6467 153.279 10.9366L152.122 17.5041C151.419 17.1684 150.751 17.0006 150.117 17.0006C149.056 17.0006 148.116 17.5308 147.296 18.591C146.477 19.6513 145.812 21.3561 145.302 23.7054L144.145 34.3689H137.863Z" fill="white"/>
<path d="M26.5808 17.045C31.5917 12.8312 41.8998 -2.22906 25.7933 0.42405C18.7781 1.51649 10.0815 7.90105 8.0056 15.8604C6.92254 13.732 5.72746 11.6737 4.42635 9.6958C2.49357 6.96466 -1.33724 9.63191 0.81029 12.4411C6.89501 20.4785 11.1185 30.1544 11.1185 39.9086C11.6196 35.0706 12.4438 28.5797 10.5827 22.8053C11.2637 23.3164 11.313 23.3547 11.7871 23.9779C15.08 29.4403 20.1382 33.9781 25.7933 36.1631C30.9476 38.27 37.8195 37.0214 35.0278 28.5939C33.5245 23.9899 30.0167 19.9322 26.5808 17.045Z" fill="white"/>
</g>
<defs>
<clipPath id="clip0_70_114">
<rect width="153.333" height="40" fill="white"/>
</clipPath>
</defs>
</svg>
