<svg width="156" height="40" viewBox="0 0 156 40" fill="none" xmlns="http://www.w3.org/2000/svg">
<g clip-path="url(#clip0_70_111)">
<path d="M58.0116 31.4032V33.8399H53.2949V6H58.0116V16.7099C59.1332 15.1249 61.2216 14.0417 63.7349 14.0417C69.4966 14.0417 72.9366 18.14 72.9366 24.095C72.9366 30.0499 69.4949 34.1483 63.6566 34.1483C61.2983 34.1483 59.1332 33.1049 58.0116 31.4032ZM68.22 24.095C68.22 20.5 66.1316 18.1417 62.9616 18.1417C59.7916 18.1417 57.7033 20.5 57.7033 24.0966C57.7033 27.6933 59.7899 30.0499 62.9616 30.0499C66.1316 30.0499 68.22 27.6916 68.22 24.095ZM94.2815 33.8399H89.5249V30.8232C88.4415 32.9499 86.2381 34.1483 83.4549 34.1483C79.0848 34.1483 76.2248 30.9782 76.2248 26.415V14.3516H80.9415V25.4099C80.9415 28.0782 82.6049 29.9333 85.0015 29.9333C87.6699 29.9333 89.5249 27.8449 89.5249 24.9832V14.3499H94.2815V33.8399ZM97.4899 27.3432H101.82C102.013 29.1999 103.443 30.3599 105.57 30.3599C107.427 30.3599 108.663 29.4316 108.663 28.2716C108.663 23.9415 97.9916 28.0783 97.9916 19.8432C97.9916 16.44 100.968 14.0434 104.99 14.0434C109.553 14.0434 112.685 16.5566 112.878 20.3449H108.548C108.278 18.5283 106.615 17.6 105.107 17.6C103.405 17.6 102.283 18.3733 102.283 19.6883C102.283 23.9032 113.11 19.2632 113.11 28.0783C113.11 31.7516 110.133 34.1483 105.57 34.1483C100.855 34.1483 97.7215 31.5199 97.4899 27.3432ZM116.708 6H121.425V17.3683C122.508 15.2417 124.75 14.0434 127.535 14.0434C131.905 14.0434 134.765 17.2133 134.765 21.7766V33.8399H130.048V22.7815C130.048 20.1133 128.385 18.2583 125.95 18.2583C123.32 18.2583 121.426 20.3466 121.426 23.2083V33.8415H116.71V6H116.708ZM155.219 21.3116V33.8399H150.541V30.9399C149.73 32.8733 147.487 34.1499 144.703 34.1499C140.836 34.1499 138.206 31.675 138.206 28.3116C138.206 24.5215 141.145 22.1632 145.515 22.1632H149.112C150.078 22.1632 150.541 21.6215 150.541 20.8483C150.541 18.9533 149.071 17.6 146.558 17.6C144.045 17.6 142.537 19.1849 142.46 20.9249H138.206C138.438 17.0583 141.724 14.0434 146.79 14.0434C151.74 14.0417 155.219 16.9032 155.219 21.3116ZM150.541 25.6032V25.2933H146.172C144.162 25.2933 142.808 26.415 142.808 28.1166C142.808 29.6249 144.045 30.6299 145.825 30.6299C148.8 30.6299 150.541 28.5415 150.541 25.6032Z" fill="white"/>
<path d="M36.804 39.9719C36.3852 39.9727 35.9704 39.8897 35.5842 39.7278C35.1979 39.566 34.8479 39.3285 34.5548 39.0294L0.931677 5.42937C0.527579 4.97496 0.261733 4.41455 0.165441 3.81413C0.0691501 3.2137 0.146423 2.59827 0.388162 2.04028C0.6299 1.4823 1.02604 1.00501 1.52993 0.664604C2.03382 0.324201 2.62449 0.134863 3.23238 0.118883C4.0472 0.097147 4.83948 0.387926 5.44678 0.93161L39.0531 34.5317C39.4963 34.978 39.7978 35.5452 39.9198 36.1622C40.0415 36.7793 39.9783 37.4186 39.738 37.9998C39.4977 38.581 39.091 39.0783 38.569 39.4292C38.047 39.7801 37.433 39.9689 36.804 39.9719ZM36.8065 20.6318C36.3875 20.6307 35.9729 20.5468 35.5865 20.3849C35.2001 20.2229 34.8496 19.9862 34.555 19.6883L20.301 5.43511C20.0054 5.13948 19.7708 4.78852 19.6108 4.40224C19.4508 4.01597 19.3684 3.60196 19.3684 3.18385C19.3684 2.76574 19.4508 2.35173 19.6108 1.96545C19.7708 1.57918 20.0054 1.22821 20.301 0.932589C20.5967 0.636922 20.9477 0.402386 21.334 0.242372C21.7203 0.0823581 22.1344 0 22.5525 0C22.9707 0 23.3847 0.0823581 23.771 0.242372C24.1573 0.402386 24.5083 0.636922 24.804 0.932589L39.0581 15.1855C39.3564 15.4796 39.5933 15.8301 39.755 16.2166C39.9166 16.6031 39.9999 17.0179 39.9999 17.4369C39.9999 17.8558 39.9166 18.2706 39.755 18.6571C39.5933 19.0436 39.3564 19.3941 39.0581 19.6883C38.7658 19.9891 38.4156 20.2278 38.0287 20.39C37.6417 20.5521 37.226 20.6343 36.8065 20.6318ZM17.4381 40C17.0192 39.9988 16.6046 39.9147 16.2182 39.7528C15.8318 39.5909 15.4812 39.3542 15.1865 39.0564L0.932516 24.8034C0.411466 24.2825 0.087161 23.5971 0.0148782 22.864C-0.0574046 22.1308 0.126808 21.3953 0.536119 20.7827C0.94543 20.1702 1.5545 19.7185 2.25953 19.5048C2.96455 19.291 3.72188 19.3284 4.40245 19.6105C4.78881 19.7705 5.13988 20.005 5.43559 20.3007L19.6894 34.5537C19.9878 34.8478 20.2247 35.1983 20.3864 35.5848C20.5481 35.9713 20.6313 36.3861 20.6313 36.805C20.6313 37.224 20.548 37.6387 20.3863 38.0252C20.2246 38.4117 19.9878 38.7622 19.6894 39.0564C19.3971 39.3572 19.047 39.5959 18.6601 39.7581C18.2733 39.9202 17.8576 40.0025 17.4381 40Z" fill="white"/>
</g>
<defs>
<clipPath id="clip0_70_111">
<rect width="155.245" height="40" fill="white"/>
</clipPath>
</defs>
</svg>
