<svg width="118" height="40" viewBox="0 0 118 40" fill="none" xmlns="http://www.w3.org/2000/svg">
<path d="M52.6127 21.7079C51.5283 21.7079 50.6849 21.4337 50.0908 20.8811C49.4925 20.3327 49.1933 19.4893 49.1933 18.3592V11.105H46.8667V7.75633H49.239V3.56836H53.4229V7.75633H56.4932V11.105H53.4686V18.3592H56.8173V21.7079H52.6127Z" fill="white"/>
<path d="M58.0764 21.7076V19.5098L64.1714 13.7264C64.8071 13.1281 65.235 12.6545 65.4511 12.2972C65.6713 11.944 65.7793 11.5701 65.7793 11.1795C65.7793 10.6186 65.5965 10.1824 65.2309 9.87079C64.8652 9.55919 64.3584 9.40546 63.7102 9.40546C62.2686 9.40546 61.4584 10.1699 61.2756 11.6947H58.0723C58.1678 10.1076 58.7204 8.87366 59.7175 7.9887C60.7188 7.10374 62.0608 6.65918 63.7435 6.65918C64.8279 6.65918 65.771 6.84199 66.5728 7.2076C67.3706 7.57322 67.9896 8.08841 68.4217 8.75317C68.8538 9.41792 69.0698 10.2073 69.0698 11.1255C69.0698 11.9191 68.858 12.6628 68.43 13.3608C68.0021 14.0546 67.3207 14.8357 66.3817 15.704L62.9956 18.7785V18.8533H69.2028V21.7076H58.0764Z" fill="white"/>
<path d="M47.4985 36.3778V25.7832H53.0451C53.6891 25.7832 54.2541 25.8954 54.7402 26.1239C55.2263 26.3524 55.6044 26.6682 55.8786 27.0712C56.1528 27.4783 56.29 27.9437 56.29 28.4755C56.29 28.9824 56.1653 29.4186 55.9119 29.7884C55.6584 30.1581 55.297 30.4448 54.8275 30.6442V30.6983C55.2471 30.8187 55.6044 31.0099 55.8994 31.2675C56.1944 31.525 56.4229 31.8283 56.5808 32.1773C56.7387 32.5263 56.8176 32.9127 56.8176 33.3407C56.8176 33.9431 56.668 34.4708 56.373 34.9236C56.0781 35.3765 55.6626 35.7338 55.1349 35.9914C54.6073 36.249 53.9924 36.3778 53.2819 36.3778H47.4985ZM49.9581 29.9172H52.692C53.0659 29.9172 53.3484 29.8299 53.5437 29.6637C53.7389 29.4975 53.8304 29.2483 53.8304 28.9242C53.8304 28.5918 53.7348 28.3425 53.5437 28.1805C53.3526 28.0143 53.07 27.9312 52.692 27.9312H49.9581V29.9172ZM49.9581 34.2339H52.8623C53.3526 34.2339 53.7223 34.1301 53.9758 33.9223C54.2292 33.7146 54.3538 33.4154 54.3538 33.0332C54.3538 32.651 54.2292 32.356 53.9758 32.1566C53.7223 31.9571 53.3567 31.8574 52.8789 31.8574H49.9623V34.2339H49.9581Z" fill="white"/>
<path d="M58.8535 36.3779V30.8854H57.6777V28.5296H60.0833V30.1001H60.6318C60.8312 29.5351 61.1594 29.1113 61.6123 28.8371C62.0651 28.5629 62.572 28.4258 63.1287 28.4258H63.7977V30.5198H63.0249C62.3809 30.5198 61.9156 30.6984 61.6331 31.0557C61.3505 31.413 61.2093 31.8784 61.2093 32.4559V36.3821H58.8535V36.3779Z" fill="white"/>
<path d="M67.2622 36.5227C66.319 36.5227 65.5836 36.2983 65.056 35.8496C64.5283 35.4009 64.2666 34.8026 64.2666 34.0506C64.2666 33.2737 64.545 32.6754 65.0975 32.2516C65.6501 31.8278 66.4437 31.6159 67.4699 31.6159H69.5764V31.3293C69.5764 30.6147 69.1235 30.2573 68.2177 30.2573C67.4159 30.2573 66.9256 30.5274 66.7511 31.0675H64.3705C64.5533 30.1784 64.9687 29.5053 65.6127 29.0525C66.2567 28.5996 67.1209 28.3711 68.2011 28.3711C69.3977 28.3711 70.3076 28.6328 70.9349 29.1646C71.5623 29.6923 71.8781 30.4609 71.8781 31.4747V34.0257H73.004V36.3814H70.5984V35.0727H70.05C69.7799 35.5422 69.4226 35.9036 68.9781 36.1529C68.5335 36.398 67.9602 36.5227 67.2622 36.5227ZM67.6278 34.7195C68.01 34.7195 68.3507 34.6531 68.6415 34.5243C68.9324 34.3913 69.1609 34.2126 69.3271 33.9883C69.4933 33.7639 69.5764 33.5105 69.5764 33.228V33.1906H67.5738C66.9007 33.1906 66.5683 33.4399 66.5683 33.9343C66.5683 34.1877 66.6639 34.383 66.8508 34.5159C67.0378 34.6489 67.2996 34.7195 67.6278 34.7195Z" fill="white"/>
<path d="M74.4458 36.3775V30.8849H73.27V28.5292H75.6756V29.8379H76.224C76.5398 29.3851 76.922 29.0278 77.3832 28.7702C77.8402 28.5126 78.426 28.3838 79.1407 28.3838C80.2583 28.3838 81.1142 28.6829 81.7124 29.2854C82.3107 29.8878 82.6099 30.6938 82.6099 31.7076V36.3775H80.2043V32.1771C80.2043 31.6369 80.063 31.2256 79.7805 30.9473C79.498 30.6689 79.0825 30.5276 78.5299 30.5276C77.9773 30.5276 77.5619 30.6689 77.2793 30.9473C76.9968 31.2256 76.8556 31.6369 76.8556 32.1771V36.3775H74.4458Z" fill="white"/>
<path d="M87.4878 36.5353C86.6694 36.5353 85.9755 36.365 85.4146 36.0201C84.8537 35.6753 84.4258 35.1975 84.1391 34.5826C83.8525 33.9677 83.707 33.2572 83.707 32.4554C83.707 31.6452 83.8441 30.9306 84.1267 30.3157C84.405 29.7008 84.8122 29.223 85.3482 28.8823C85.8841 28.5416 86.5281 28.3713 87.2759 28.3713C87.8327 28.3713 88.3146 28.4752 88.7135 28.6787C89.1123 28.8823 89.424 29.169 89.6442 29.5346H89.6982V25.3882H92.1038V34.0217H93.2795V36.3775H90.874V35.0687H90.3255C90.0472 35.5299 89.6691 35.8914 89.1954 36.1489C88.7177 36.4065 88.1484 36.5353 87.4878 36.5353ZM87.9449 34.4413C88.485 34.4413 88.9129 34.2918 89.2287 33.9885C89.5444 33.6893 89.6982 33.2697 89.6982 32.7379V32.1604C89.6982 31.6286 89.5403 31.2131 89.2287 30.9098C88.9129 30.6107 88.4891 30.457 87.9449 30.457C87.3258 30.457 86.8646 30.6356 86.5655 30.9929C86.2664 31.3502 86.1126 31.8363 86.1126 32.4429C86.1126 33.0537 86.2622 33.5356 86.5655 33.8971C86.8646 34.2627 87.3258 34.4413 87.9449 34.4413Z" fill="white"/>
<path d="M95.5729 27.8645C95.2156 27.8645 94.9123 27.7399 94.6588 27.4864C94.4054 27.233 94.2808 26.9297 94.2808 26.5724C94.2808 26.2151 94.4054 25.9076 94.6588 25.6584C94.9123 25.4049 95.2156 25.2803 95.5729 25.2803C95.9302 25.2803 96.2376 25.4049 96.4869 25.6584C96.7404 25.9118 96.865 26.2151 96.865 26.5724C96.865 26.9297 96.7404 27.233 96.4869 27.4864C96.2335 27.7357 95.9302 27.8645 95.5729 27.8645ZM94.368 36.3776V28.5293H96.7736V36.3776H94.368Z" fill="white"/>
<path d="M99.0386 36.3775V30.8849H97.8628V28.5292H100.268V29.8379H100.817C101.133 29.3851 101.515 29.0278 101.976 28.7702C102.433 28.5126 103.019 28.3838 103.733 28.3838C104.851 28.3838 105.707 28.6829 106.305 29.2854C106.903 29.8878 107.203 30.6938 107.203 31.7076V36.3775H104.797V32.1771C104.797 31.6369 104.656 31.2256 104.373 30.9473C104.091 30.6689 103.675 30.5276 103.123 30.5276C102.57 30.5276 102.155 30.6689 101.872 30.9473C101.59 31.2256 101.448 31.6369 101.448 32.1771V36.3775H99.0386Z" fill="white"/>
<path d="M112.628 39.6766C111.415 39.6766 110.43 39.4356 109.678 38.9495C108.922 38.4676 108.478 37.7904 108.336 36.9303H110.875C111.074 37.5078 111.631 37.7945 112.537 37.7945C113.173 37.7945 113.659 37.6491 113.995 37.3624C114.332 37.0757 114.498 36.6644 114.498 36.1326V35.1521H114.431C114.186 35.5634 113.866 35.8709 113.472 36.0745C113.073 36.278 112.595 36.3819 112.026 36.3819C111.295 36.3819 110.655 36.2199 110.111 35.8916C109.566 35.5634 109.142 35.0981 108.843 34.4998C108.544 33.8974 108.39 33.1911 108.39 32.3809C108.39 31.1594 108.727 30.1872 109.404 29.4643C110.081 28.7413 111.016 28.3799 112.209 28.3799C112.869 28.3799 113.438 28.5087 113.916 28.7663C114.39 29.0239 114.768 29.3853 115.046 29.8465H115.595V28.5378H118V30.8935H116.825V36.1409C116.825 37.2752 116.463 38.1477 115.74 38.7626C115.017 39.3775 113.983 39.6766 112.628 39.6766ZM112.628 34.2879C113.193 34.2879 113.634 34.1342 113.949 33.8309C114.265 33.5276 114.419 33.1038 114.419 32.5637V32.1732C114.419 31.6414 114.261 31.2259 113.941 30.9226C113.621 30.6234 113.185 30.4697 112.628 30.4697C112.042 30.4697 111.594 30.6359 111.274 30.9724C110.954 31.309 110.796 31.7826 110.796 32.3934C110.796 33.0041 110.954 33.4736 111.274 33.7977C111.594 34.1217 112.047 34.2879 112.628 34.2879Z" fill="white"/>
<path d="M21.571 0.984863H16.3061C15.5068 0.984863 14.8596 1.63206 14.8596 2.43135V7.21736H7.97993V2.43135C7.97993 1.63206 7.33273 0.984863 6.53345 0.984863H0V7.46977H7.57867V16.6438C7.57867 18.2132 8.85041 19.485 10.4199 19.485H15.5554V7.46977H23.6324V3.05265C23.6356 1.91035 22.7134 0.984863 21.571 0.984863Z" fill="white"/>
<path d="M26.5575 27.5713V22.1608H27.7031C29.8517 22.1608 31.5927 20.4198 31.5927 18.2711V8.89326C31.5927 8.09397 30.9455 7.44678 30.1462 7.44678H23.6128V21.3647H16.5486C15.5034 21.3647 14.6523 22.2126 14.6523 23.261V26.9015C14.6523 27.9467 15.5002 28.7978 16.5486 28.7978H25.0819V34.1954C25.0819 35.2762 25.9589 36.1532 27.0397 36.1532H37V27.5778H26.5575V27.5713Z" fill="white"/>
</svg>
